<?xml version="1.0" encoding="UTF-8" standalone="no"?>
<!-- Generator: Adobe Illustrator 19.0.0, SVG Export Plug-In . SVG Version: 6.00 Build 0)  -->

<svg
   xmlns:dc="http://purl.org/dc/elements/1.1/"
   xmlns:cc="http://creativecommons.org/ns#"
   xmlns:rdf="http://www.w3.org/1999/02/22-rdf-syntax-ns#"
   xmlns:svg="http://www.w3.org/2000/svg"
   xmlns="http://www.w3.org/2000/svg"
   xmlns:sodipodi="http://sodipodi.sourceforge.net/DTD/sodipodi-0.dtd"
   xmlns:inkscape="http://www.inkscape.org/namespaces/inkscape"
   version="1.1"
   id="Layer_1"
   x="0px"
   y="0px"
   viewBox="460.2 165 23.999939 47.042046"
   xml:space="preserve"
   sodipodi:docname="dlalogo2test.svg"
   inkscape:version="0.92.4 (unknown)"
   width="23.999939"
   height="47.042046"><metadata
   id="metadata76"><rdf:RDF><cc:Work
       rdf:about=""><dc:format>image/svg+xml</dc:format><dc:type
         rdf:resource="http://purl.org/dc/dcmitype/StillImage" /><dc:title></dc:title></cc:Work></rdf:RDF></metadata><defs
   id="defs74" /><sodipodi:namedview
   pagecolor="#ffffff"
   bordercolor="#666666"
   borderopacity="1"
   objecttolerance="10"
   gridtolerance="10"
   guidetolerance="10"
   inkscape:pageopacity="0"
   inkscape:pageshadow="2"
   inkscape:window-width="2560"
   inkscape:window-height="1306"
   id="namedview72"
   showgrid="false"
   inkscape:zoom="9.6521739"
   inkscape:cx="-0.77957611"
   inkscape:cy="25.808967"
   inkscape:window-x="0"
   inkscape:window-y="34"
   inkscape:window-maximized="1"
   inkscape:current-layer="Layer_1"
   fit-margin-top="0"
   fit-margin-left="0"
   fit-margin-right="0"
   fit-margin-bottom="0" />
<style
   type="text/css"
   id="style63">
	.st0{fill:#E93A3A;}
	.st1{fill:#FFFFFF;}
</style>
<path
   id="Bg_color"
   class="st0"
   d="m 461.57028,166.27121 -0.32737,7.7751 -0.75705,13.25861 0.5729,7.52958 5.87226,1.26858 10.76238,-1.14582 3.82617,0.69568 1.08443,-2.29161 0.18415,-10.70101 -0.32737,-9.61659 -0.24553,-4.8492 -1.39134,-1.53457 -4.39907,-0.18415 -6.81346,-0.18415 -5.36074,0.32737 z"
   inkscape:connector-curvature="0"
   style="fill:#e93a3a;stroke-width:0.20460816" />
<path
   id="Border_merge"
   d="m 466.74686,165.43231 c 1.96424,0.0205 3.84664,-0.0818 4.78784,-0.12276 1.47318,-0.0818 3.53972,0.36829 5.27888,0.36829 1.61642,0.0205 4.70599,-0.8389 5.6472,0.53198 1.00258,1.45272 0.7775,2.4553 0.5729,4.46046 -0.20461,2.20977 0.0614,7.30452 0.0614,9.57566 0.0205,3.82617 0,4.37862 0.0409,8.1434 0.0409,4.13309 -0.30691,4.50139 -0.38875,7.85696 -0.0614,2.70082 -1.28903,3.51926 -1.28903,-0.1023 0,-2.27116 0.24552,-4.52185 0.3069,-8.36848 0.0205,-2.5576 0.18415,-6.22009 0.18415,-7.65234 0,-3.4988 -0.0818,-5.21751 -0.16368,-6.97714 -0.10231,-2.14839 0.28645,-3.25327 0.0409,-4.50138 -0.40922,-1.92332 -2.86451,-1.43226 -5.13567,-1.5141 -1.78009,-0.0409 -4.29676,-0.32737 -5.54487,-0.12277 -1.39134,0.22508 -4.39909,0.14323 -5.97457,0.12277 -1.49364,-0.0205 -2.61898,-0.61383 -3.21235,1.12534 -0.28645,0.8389 -0.0409,5.05383 -0.0409,5.87226 0,2.68037 0,6.22008 0.0205,8.85953 0.0204,2.29161 -0.18416,3.23281 -0.20461,5.42212 -0.0409,3.76478 0.5729,4.43999 0.42968,7.77511 -0.14323,3.45788 -1.63687,4.11262 -1.63687,1.90285 -0.0205,-4.29677 -0.49106,-7.40681 -0.26599,-11.43759 0.24552,-4.72645 0.36829,-7.48866 0.36829,-12.25603 0,-1.67779 -0.0205,-3.98987 0.0409,-5.60627 0.0409,-1.26856 -0.0205,-2.39391 0.3683,-3.0282 0,0 0.30691,-0.71613 2.51668,-0.75705 0.96166,-0.0409 2.25069,0.40922 3.19188,0.42968 z"
   inkscape:connector-curvature="0"
   style="stroke-width:0.20460816" />
<path
   id="Dna_BG"
   d="m 461.91811,195.01865 c 4.9106,0.85935 13.11539,-0.14323 19.21271,-0.20461 1.02304,0.0205 1.67778,0.4706 1.63686,1.20719 -0.16368,3.11004 0.98213,9.02322 1.43226,13.56552 0,0.0409 0,0.0614 0,0.1023 0,0.0409 0,0.0614 0,0.10231 0,0.18414 -0.0614,0.36829 -0.16368,0.55244 -0.14323,0.22507 -0.32737,0.42968 -0.55245,0.55244 -0.49105,0.30692 -1.16626,0.4706 -1.90285,0.45014 -8.49124,-0.34783 -12.84939,0.34783 -18.47612,0.69567 -0.0204,0 -0.0614,0 -0.0818,0 -0.0205,0 -0.0614,0 -0.0818,0 -0.0614,0 -0.12277,0 -0.16369,-0.0204 -0.10231,-0.0205 -0.22507,-0.0409 -0.32737,-0.0818 -0.20461,-0.0614 -0.40922,-0.18414 -0.57291,-0.30691 -0.32737,-0.26599 -0.5729,-0.65475 -0.59336,-1.08442 -0.14323,-1.75963 -0.34783,-3.4988 -0.51152,-5.56535 -0.0409,-0.51151 -0.0818,-1.0435 -0.12276,-1.6164 -0.0409,-0.55244 -0.0614,-1.1458 -0.10231,-1.75963 -0.0614,-1.22765 -0.0818,-2.59852 -0.0818,-4.11262 0,-0.73659 0.18416,-1.43226 0.42968,-1.88239 0.12277,-0.22507 0.266,-0.40923 0.42969,-0.51152 0.0818,-0.0614 0.16368,-0.0818 0.26598,-0.10231 0.0409,0 0.10231,-0.0205 0.14323,-0.0205 0.0205,0 0.0409,0 0.0818,0 0.0614,0.0205 0.0818,0.0205 0.1023,0.0409 v 0 z"
   inkscape:connector-curvature="0"
   style="stroke-width:0.20460816" />
<path
   id="DLA"
   class="st1"
   d="m 466.31719,209.23892 h -0.0818 v 0.0205 h 0.0818 z m 0.9412,-0.61383 c 0,-0.0205 -0.0205,-0.0409 -0.0409,-0.0409 -0.0409,0 -0.0818,0.0205 -0.12277,0.0205 -0.0409,0.0205 -0.0818,0.0205 -0.14323,0.0205 l -0.0409,0.0205 -0.18414,-0.0614 -0.77751,0.0205 c -0.0205,0 -0.0409,0.0205 -0.0614,0.0205 -0.0204,0.0205 -0.0409,0.0205 -0.0614,0.0205 0.0204,0.0205 -0.0614,0.0205 -0.22507,0.0205 -0.0204,0 -0.0614,0 -0.0818,-0.0205 -0.16369,0 -0.32737,-0.0205 -0.49106,-0.0818 -0.26599,0.0614 -0.53199,0.12276 -0.79797,0.14323 0,-0.0205 -0.0205,0 -0.0614,0.0204 l -0.85935,0.0205 0.0205,-0.0205 -0.14322,0.0205 c -0.0205,0.0204 -0.18415,0.0409 -0.4706,0.0614 -0.18415,0.0204 -0.28645,0.12276 -0.28645,0.30691 0,0.12277 0.16368,0.22508 0.49105,0.28645 0.65476,-0.0818 1.14581,-0.12276 1.51411,-0.1023 0.1023,-0.0205 0.16368,-0.0409 0.22507,-0.0614 h 0.14322 -0.0409 c 0.14323,-0.0409 0.22507,-0.0614 0.20461,-0.0614 0.0409,0 0.26599,0.0409 0.73658,0.14323 l 0.16369,-0.0409 h -0.0614 l 0.36829,-0.0205 -0.0614,-0.0204 0.38875,-0.0205 c 0.0818,0.0614 0.2046,0.0818 0.36829,0.0818 0.10231,0 0.22507,0 0.32738,0.0205 0.1023,-0.0409 0.20461,-0.0818 0.30691,-0.0818 l -0.0818,-0.0205 0.14323,-0.0204 c 0.0614,-0.0614 0.1023,-0.12277 0.1023,-0.20461 0.0409,-0.20461 -0.1023,-0.32737 -0.40921,-0.36829 z m -2.68037,0.0409 h -0.12277 v 0.0204 h 0.12277 z m -0.90028,-0.32738 h -0.0818 v 0.0205 h 0.0818 z m 0.10231,0.3683 h -0.0818 v 0.0204 h 0.0818 z m -0.12276,0.0204 h -0.0818 v 0.0205 h 0.0818 z m 2.90543,1.26858 c -0.0409,-0.0614 -0.0614,-0.0818 -0.0818,-0.10231 -0.0818,0.0205 -0.16369,0 -0.20461,-0.0614 -0.30691,0.1023 -0.4706,0.14322 -0.42968,0.14322 -0.30691,0 -0.49106,0.0205 -0.53198,0.0409 -0.0409,-0.0204 -0.2046,-0.0204 -0.49106,0 l -0.0614,0.0409 -0.16369,-0.0614 c -0.14323,0.0409 -0.28645,0.0614 -0.45013,0.0204 l -0.0409,0.0205 c -0.16368,-0.0205 -0.55244,-0.0205 -1.10489,0 -0.0818,0 -0.16368,0.0409 -0.26598,0.12276 -0.10231,0.0818 -0.14323,0.16369 -0.16369,0.24553 0.20461,0.14323 0.34783,0.266 0.4706,0.32737 0.14323,-0.0205 0.28645,-0.0409 0.40922,-0.10229 0.14322,-0.0409 0.30691,-0.0614 0.45014,-0.0205 l 0.0409,-0.0205 0.16368,0.0409 -0.0818,-0.0205 c 0.49106,0.0614 0.75705,0.10231 0.77751,0.10231 h 0.0818 l 0.0818,-0.0409 c 0.0409,0.0409 0.1023,0.0614 0.18415,0.0818 0.0204,0 0.0614,0 0.0818,-0.0204 l 0.0409,-0.0614 c 0.0614,0.0204 0.12277,0.0204 0.18414,0.0204 0.266,0 0.51153,-0.0614 0.75705,-0.14322 0.30692,-0.12277 0.45014,-0.24554 0.45014,-0.38876 -0.0614,-0.0818 -0.0818,-0.12276 -0.1023,-0.16368 z m 1.16627,-10.90562 c -0.14323,-0.42968 -0.22507,-0.65474 -0.22507,-0.69566 -0.18415,-0.24553 -0.34783,-0.42968 -0.47061,-0.55245 l -0.16368,-0.0818 c -0.14322,-0.16369 -0.24553,-0.26599 -0.32737,-0.34784 -0.1023,-0.0409 -0.20461,-0.1023 -0.30691,-0.16368 h -0.20461 c -0.28646,0 -0.45014,-0.0205 -0.4706,-0.0409 l -0.16368,0.0205 c -0.20461,-0.0818 -0.51153,-0.12276 -0.87982,-0.12276 l -0.0409,-0.0409 c -0.22508,0.0614 -0.32737,0.0818 -0.34784,0 l -0.65474,0.0204 c -0.18416,0.0205 -0.3683,0.0614 -0.55245,0.10231 -0.20461,0.0614 -0.38875,0.0818 -0.59335,0.1023 -0.0409,0 -0.0818,0 -0.12277,0 0,0.0205 -0.0409,0.0409 -0.0614,0.0409 -0.0204,0 -0.0409,0 -0.0614,0 -0.0205,0 -0.0409,0 -0.0818,0 l -0.0204,-0.0205 h -0.12277 l -0.0614,0.0205 c -0.22507,-0.0614 -0.34783,0 -0.34783,0.18415 0,0.30691 0.12276,0.85935 0.32737,1.65733 -0.0204,0.12276 -0.0204,0.22507 -0.0204,0.34783 0,0.26599 0.0614,0.69567 0.16368,1.28903 0.10231,0.59336 0.14323,0.92073 0.14323,1.00259 0,0.14322 -0.0409,0.36829 -0.12276,0.65474 -0.0818,0.28645 -0.12277,0.49106 -0.12277,0.63429 0,0.16368 0.0614,0.45013 0.16369,0.79796 0.1023,0.34784 0.14322,0.63429 0.16368,0.81844 0.0205,0.5729 -0.0614,1.0435 -0.22507,1.45272 l 0.10231,0.2046 0.14323,0.0818 c 0.0614,-0.0205 0.24553,-0.0205 0.53198,0.0204 0.0409,-0.0818 0.12276,-0.14322 0.22506,-0.14322 0.14323,0 0.266,0.0205 0.40922,0.0614 l 0.0818,-0.0205 c 0.1023,0 0.18414,0.0409 0.26598,0.0818 0.16369,0 0.30692,0.0204 0.47061,0.0409 0.14322,0.0204 0.28645,0.0409 0.45013,0.0409 0.0614,0 0.14323,-0.0614 0.20461,-0.16369 0.0409,-0.0818 0.0818,-0.16368 0.0818,-0.24553 -0.22506,-0.36829 -0.32737,-0.65475 -0.32737,-0.85936 0,-0.12276 0,-0.3069 0.0205,-0.5729 0.0204,-0.2046 0.0204,-0.38875 0.0204,-0.59336 0,-0.20461 -0.0614,-0.49106 -0.14323,-0.85935 -0.0818,-0.38876 -0.14322,-0.65475 -0.14322,-0.85935 0,-0.18416 -0.0204,-0.55245 -0.0409,-1.10489 -0.0205,-0.55244 -0.0409,-0.92074 -0.0409,-1.10488 0,-0.0818 0.0205,-0.22508 0.1023,-0.40922 0.0614,-0.18415 0.12276,-0.26599 0.18415,-0.28645 0.0818,0 0.14323,0.0205 0.20461,0.0818 0.0614,-0.0409 0.12276,-0.0818 0.18415,-0.0818 0.16368,0 0.32737,0.28645 0.47059,0.85935 0.12276,0.4706 0.18415,0.8389 0.18415,1.10488 0.0205,0.18415 0.0409,0.38876 0.1023,0.57291 0.0614,0.18414 0.0818,0.34783 0.10231,0.53198 0.0204,0.8389 0,1.32995 -0.0409,1.47317 0.0614,0.10231 0.14322,0.20461 0.22507,0.30692 0.12277,0.0818 0.26599,0.16369 0.38875,0.26599 0.0409,-0.0409 0.0818,-0.0409 0.10231,0 l 0.49106,-0.0205 c 0.0409,-0.0409 0.30691,-0.0614 0.79797,-0.0818 l 0.0818,0.0205 c 0.14322,0 0.28645,-0.18415 0.42967,-0.57291 -0.0818,-0.5729 -0.14322,-1.41179 -0.16368,-2.53714 -0.0614,-1.02304 -0.16369,-1.82101 -0.34783,-2.31207 v 0 z m 0.0409,5.97456 c -0.53198,-0.16369 -0.9412,-0.24553 -1.24811,-0.26599 l 0.0409,-0.0204 c -0.0409,0 -0.10231,-0.0205 -0.14323,-0.0205 -0.0409,-0.0204 -0.1023,-0.0204 -0.16368,-0.0204 -0.18415,0 -0.28645,0.0614 -0.34783,0.16368 -0.0205,0.0614 -0.0409,0.14323 -0.0614,0.22507 v 0.0818 c 0.18415,0.0818 0.34784,0.16368 0.53198,0.22506 0.12276,0 0.28645,0 0.53198,0.0205 0.24554,0.0204 0.42968,0.0204 0.53199,0.0204 0.26598,0 0.38875,-0.0818 0.38875,-0.20461 z m 0.28645,0.9412 -0.0409,-0.16369 c -0.12277,-0.0409 -0.22507,-0.1023 -0.34784,-0.16368 l -0.49106,0.0204 -0.0818,-0.0614 h -0.28645 l -0.12276,0.0409 -0.14323,-0.0205 -0.12277,0.0409 -0.1023,-0.0204 c -0.18415,0 -0.26599,0.0614 -0.26599,0.20461 v 0.16368 c 0.0818,0.0818 0.16368,0.16369 0.22507,0.26599 h 0.0614 c 0.10231,0 0.16368,0 0.16368,-0.0205 0.16369,0 0.32738,0.0205 0.47061,0.0409 0.14322,0.0205 0.28645,0.0409 0.45013,0.0409 0.14323,-0.0205 0.266,-0.0614 0.38876,-0.12276 0.16369,-0.0818 0.24553,-0.16369 0.24553,-0.24553 v 0 z m -0.26599,0.51151 -0.1023,0.0409 -0.266,-0.0614 h -0.18414 c 0,0.0409 -0.0614,0.0614 -0.14323,0.0614 -0.12276,0 -0.24553,0.0205 -0.36829,0.0818 -0.45014,-0.0614 -0.67521,0.0205 -0.67521,0.22507 0,0.16369 0.0204,0.266 0.0409,0.28645 l 0.0614,0.0818 0.8798,-0.0204 c 0.0409,0.0409 0.12278,0.0614 0.24554,0.0614 0.24553,0 0.42967,-0.0409 0.51152,-0.1023 l 0.14323,-0.0205 c 0.10229,-0.1023 0.2046,-0.18414 0.32737,-0.26598 v 0 c -0.0205,-0.18416 -0.16369,-0.30692 -0.4706,-0.36831 v 0 z m 0,1.24811 -0.20461,-0.0818 0.0409,-0.0205 c 0.0409,0 -0.0614,-0.0205 -0.32737,-0.0409 l 0.0614,-0.0204 c -0.28647,0 -0.49107,0 -0.59337,-0.0205 -0.0818,0.0409 -0.18415,0.0614 -0.266,0.0614 -0.38874,0.0205 -0.59335,0.0409 -0.61382,0.0614 l 0.0409,0.0205 -0.14323,0.0205 c -0.0614,0.22506 -0.1023,0.30691 -0.1023,0.24553 l 0.0205,0.0409 -0.0818,0.0614 c 0.22507,0.12276 0.38876,0.18414 0.49107,0.2046 0.0205,-0.0204 0.14322,-0.0204 0.34782,-0.0204 0.20461,0 0.34784,0.0204 0.38876,0.0204 0,0 0.16369,0 0.51153,0 l 0.28645,-0.0204 c 0.0409,-0.0614 0.10229,-0.12277 0.16368,-0.14322 0.0818,-0.0409 0.12277,-0.10231 0.1023,-0.18415 z m -3.19189,-1.18672 h -0.0818 v 0.0205 h 0.0818 z m -0.34784,0.24553 0.0409,-0.0205 -0.20461,-0.0204 0.0614,-0.0205 -0.14323,0.0205 c -0.14322,-0.0614 -0.59335,-0.0818 -1.3504,-0.0409 l -0.0614,0.0204 -0.16369,-0.0204 c -0.16368,0 -0.24553,0.12276 -0.24553,0.32737 0.18416,0.20461 0.32738,0.30692 0.42969,0.28645 0.0818,0 0.18414,-0.0205 0.26598,-0.0409 0.0818,-0.0205 0.16369,-0.0409 0.26599,-0.0409 0.0818,0 0.16369,0.0204 0.24553,0.0204 0.0818,0.0205 0.18415,0.0205 0.266,0.0205 0.1023,0 0.18414,0 0.28645,0.0204 0.1023,0.0205 0.18414,0.0205 0.28645,0.0205 0.22506,0 0.34783,-0.1023 0.32737,-0.30691 v 0 c 0.0205,-0.0205 -0.0818,-0.12276 -0.30692,-0.22507 v 0 z m 0.30692,1.02304 c -0.14323,-0.12277 -0.22507,-0.18414 -0.24553,-0.16369 l -0.16368,-0.0409 -0.28645,0.0818 c -0.0409,-0.0204 -0.266,-0.0409 -0.69568,-0.0204 l -0.0614,0.0409 -0.16368,-0.0409 -0.16369,0.0614 -0.0614,-0.0204 c -0.0614,0.0409 -0.12276,0.0614 -0.18414,0.0818 l -0.0818,0.16369 0.0614,0.18415 c 0.12276,0.14322 0.26599,0.22506 0.40921,0.24553 0.12277,-0.0818 0.28645,-0.12277 0.42968,-0.12277 0.0409,0 0.0818,0 0.12277,0.0205 l -0.0614,0.0204 c 0.55243,0 0.87981,0.0205 0.94119,0.0614 0.0205,-0.0205 0.0818,-0.0614 0.18414,-0.16369 0.0818,-0.0818 0.12278,-0.14322 0.12278,-0.2046 z m 7.36589,-2.92589 c 0,-0.34784 -0.0818,-0.79798 -0.2046,-1.3095 -0.14323,-0.53198 -0.20461,-0.85935 -0.20461,-1.02304 0,-0.22507 0.0409,-0.61382 0.12276,-1.18673 0.0818,-0.5729 0.14322,-0.96166 0.12277,-1.20719 -0.0409,-1.28903 -0.0409,-1.7187 -0.0409,-1.26856 0,-0.59337 0.0818,-0.98213 0.2046,-1.18674 l -0.0204,-0.51151 c -0.24553,-0.26599 -0.38875,-0.40921 -0.45014,-0.40921 l -0.0614,0.0204 -0.266,-0.12276 -0.16369,0.0614 -0.14323,-0.0204 -0.0818,0.0204 c -0.0614,-0.0204 -0.12276,-0.0204 -0.16368,-0.0204 -0.12277,0 -0.30691,0.0409 -0.55244,0.12276 -0.24553,0.0818 -0.42968,0.12277 -0.51152,0.12277 -0.0614,0 -0.12277,-0.0205 -0.18415,-0.0409 -0.0614,-0.0205 -0.12277,-0.0409 -0.18415,-0.0409 -0.14323,0 -0.26599,0.0614 -0.32737,0.18415 0.0818,0.0614 0.12277,0.32737 0.14322,0.7775 0,0.16369 0,0.38876 -0.0204,0.71614 -0.0205,0.32737 -0.0205,0.55243 -0.0205,0.71613 0,0.14322 0.0205,0.34782 0.0614,0.63427 0.0409,0.28645 0.0409,0.49106 0.0614,0.63429 0,0.32737 0.0409,0.85935 0.12276,1.59595 0.0818,0.75704 0.12276,1.26856 0.12276,1.57548 0,0.0818 0,0.18414 -0.0204,0.26598 -0.0205,0.0818 -0.0205,0.18416 -0.0205,0.266 0.0205,0.20461 0.0409,0.40921 0.10231,0.59337 0.0409,0.18414 0.0818,0.38874 0.1023,0.59335 l -0.14322,1.00258 c -0.0204,0.0818 0.0409,0.16369 0.18414,0.24553 0.12277,0.0614 0.24554,0.10231 0.36831,0.10231 0.0204,0 0.0614,0 0.0818,-0.0205 l 0.1023,0.0409 c 0.16368,-0.0409 0.32737,-0.0614 0.49105,-0.0409 0.30692,0.0409 0.47061,0.0409 0.49107,0.0409 0.45014,-0.0205 0.73659,-0.0614 0.83889,-0.14323 0.0614,-0.0614 0.2046,-0.28645 0.42968,-0.69567 v 0 c -0.22508,-0.18415 -0.34784,-0.57291 -0.3683,-1.08442 v 0 z m 0.0614,2.55759 c -0.77751,-0.0204 -1.10488,-0.0204 -1.02304,-0.0409 l -0.12276,0.0614 c -0.14323,-0.0205 -0.26599,-0.0409 -0.40921,0 -0.24553,0.0409 -0.38876,0.0614 -0.40922,0.0614 l -0.20461,-0.0409 -0.20461,0.24553 c 0,0.10231 0.22507,0.20461 0.65475,0.34784 l 0.28645,-0.0818 0.30691,0.0614 c 0.0204,-0.0205 0.26599,-0.0409 0.73659,-0.10231 0.38875,-0.0409 0.5729,-0.16369 0.5729,-0.34784 v 0 z m 3.11005,1.12535 c -0.0409,-0.20461 -0.14323,-0.30691 -0.26599,-0.30691 -0.0409,0 -0.0818,0.0205 -0.12277,0.0409 l -0.0818,-0.0205 -0.24553,0.0818 h -0.0818 l -0.12276,0.0409 -0.0818,-0.0409 -0.2046,0.0818 -0.0614,-0.0205 c -0.18414,0.0818 -0.32737,0.12276 -0.38875,0.12276 0.0205,0 -0.24554,-0.0204 -0.81844,-0.0614 0.0205,-0.0614 -0.0818,-0.1023 -0.28645,-0.0818 l -0.18414,0.0614 c -0.90028,-0.0818 -1.35042,-0.12276 -1.39134,-0.14323 l -0.10231,0.0409 -0.1023,-0.0204 -0.10231,0.0409 -0.16368,-0.0818 -0.0614,0.0409 -0.0614,-0.0409 -0.32737,0.18415 -0.1023,-0.0205 -0.0204,0.20461 c 0,0.24553 0.18415,0.36829 0.51152,0.34782 l 0.0818,-0.0409 0.34783,0.0205 0.0614,0.0204 c 0.38876,-0.0204 0.67521,-0.0204 0.90027,0.0409 l 0.14323,-0.0818 c 0.28645,0.0409 0.42968,0.10231 0.40921,0.16369 l -0.14323,0.81844 c 0,-0.0205 0.0409,0.14322 0.12278,0.49106 0.0614,0.0409 0.20461,0.1023 0.45013,0.18415 0.22507,0.0614 0.3683,0.1023 0.45014,0.0818 l 0.8389,-0.20461 0.0818,0.0409 c 0.1023,0 0.18414,-0.0204 0.26598,-0.0409 0.0818,-0.0204 0.18415,-0.0409 0.266,-0.0409 l 0.2046,0.0409 c 0.10231,-0.0614 0.20461,-0.10231 0.30692,-0.12277 0.1023,-0.14322 0.14322,-0.24553 0.1023,-0.28645 0.0204,-0.0818 0.0204,-0.16369 0.0204,-0.24553 0,-0.0614 -0.0204,-0.12276 -0.0409,-0.20461 -0.0204,-0.0614 -0.0409,-0.12276 -0.0409,-0.20461 0,-0.0818 0.0409,-0.22506 0.12277,-0.42968 v 0 c -0.0205,-0.16368 -0.0614,-0.3069 -0.0818,-0.45013 v 0 z m -3.4988,0.5729 -0.0818,0.0205 -0.0614,-0.0205 -0.12276,0.0409 c -0.3683,0.0409 -0.73659,0.0205 -1.08443,-0.0818 l -0.10229,0.0409 c -0.22508,0 -0.34784,0 -0.38876,0 0,0.0409 0,0.0818 -0.0205,0.12277 -0.0204,0.0409 -0.0204,0.0818 -0.0204,0.12277 0,0.12276 0.24552,0.24553 0.71613,0.32737 0.28645,0.0409 0.59336,0.0818 0.87981,0.14322 l 0.28645,-0.1023 0.0614,0.0205 0.28645,-0.28645 c 0.0409,-0.22507 -0.0818,-0.34784 -0.34783,-0.34784 v 0 z m -0.85936,0.92074 c -0.63428,0 -0.96165,0.0204 -0.98211,0 l -0.12277,0.0614 c 0.0818,0.0205 0.14323,0.0409 0.14323,0.0818 -0.0409,0.0409 -0.0614,0.1023 -0.0818,0.16368 0,0.22508 0.24553,0.32737 0.73659,0.30692 0.16368,0 0.38874,-0.0614 0.69566,-0.14323 0.36829,-0.12277 0.55245,-0.22507 0.55245,-0.32737 0.0204,-0.10231 -0.30692,-0.14323 -0.94121,-0.14323 z m 12.09235,-2.92589 c -0.14323,-1.26858 -0.30692,-2.08701 -0.49106,-2.41438 0,-0.0204 0.0205,-0.0409 0,-0.0614 0,-0.10229 -0.0614,-0.36829 -0.16368,-0.79797 -0.10231,-0.42967 -0.1637,-0.69566 -0.1637,-0.73659 0,-0.0818 -0.0205,-0.18415 -0.0205,-0.26599 -0.0204,-0.12277 -0.0204,-0.20461 -0.0204,-0.24553 0,-0.16369 0,-0.32737 0.0204,-0.47059 0.0205,-0.16369 0.0205,-0.30692 0.0205,-0.4706 -0.0205,-0.49106 -0.12276,-1.22765 -0.32737,-2.20977 -0.20461,-0.98212 -0.32737,-1.71871 -0.32737,-2.23023 0,-0.22507 0.0204,-0.45013 0.0818,-0.65475 -0.18414,-0.18414 -0.30691,-0.28645 -0.38875,-0.28645 -0.1637,0.0204 -0.32738,0.0409 -0.49107,0.10231 -0.16368,0.0614 -0.32737,0.0818 -0.51151,0.1023 -0.0818,0 -0.14323,-0.0205 -0.22507,-0.0409 -0.0818,-0.0204 -0.16369,-0.0409 -0.22508,-0.0409 -0.53198,0.28646 -0.92072,0.45015 -1.18672,0.45015 l -0.0614,-0.0205 c -0.0409,0.0205 -0.10229,0.0205 -0.14322,0.0205 -0.12276,0 -0.26599,-0.0409 -0.4706,-0.14323 -0.20461,-0.10231 -0.34783,-0.14323 -0.47059,-0.14323 l -0.18415,0.0614 0.0204,0.18415 0.10231,0.1023 -0.0614,0.10231 c -0.0205,0.16368 0,0.40921 0.0614,0.7775 0.0614,0.42968 0.0818,0.69567 0.0818,0.79798 0,0.34782 -0.0409,0.87981 -0.14323,1.59593 -0.1023,0.71613 -0.14322,1.24811 -0.14322,1.61642 0.0204,0.53198 -0.16369,1.30948 -0.53198,2.39391 -0.3683,1.06396 -0.55245,1.80055 -0.53198,2.20977 0.1023,0.24553 0.2046,0.36829 0.3069,0.36829 0.0205,0 0.0409,0 0.0614,-0.0205 l 0.0818,0.0409 0.20461,-0.0818 0.0614,0.0205 c 0.2046,-0.0614 0.30691,-0.10231 0.30691,-0.10231 0.0818,0 0.20461,0.0409 0.3683,0.12277 0,0 0.16368,-0.0204 0.51152,-0.0818 l 0.38875,0.0818 c 0.14323,-0.0204 0.28646,-0.0409 0.40922,-0.0818 0.12277,-0.0409 0.24553,-0.0818 0.38875,-0.1023 l 0.12277,-0.0614 c 0.63428,-0.0205 1.00258,0.0409 1.0435,0.16368 0.0614,0.30692 0.12276,0.61383 0.18415,0.94121 0.0205,0.0204 0.18414,0.0818 0.51151,0.2046 0.30692,0.1023 0.47061,0.16369 0.49107,0.16369 0.16369,0 0.3683,-0.0614 0.5729,-0.18415 l 0.32737,0.14323 0.14323,-0.0614 0.22507,0.0818 c 0.22507,0 0.36829,-0.16369 0.40921,-0.49106 v 0 z m -0.40921,1.20719 -0.0614,0.0204 c -0.45014,-0.1023 -0.67521,-0.16368 -0.71613,-0.14322 l -0.55244,0.22506 -0.0409,-0.0204 c -0.14323,0.0614 -0.28646,0.14322 -0.42968,0.22506 l -0.0614,0.16369 0.0205,0.22507 0.1023,-0.0205 c 0.10231,0.0614 0.22507,0.1023 0.34784,0.1023 h 0.71613 c 0.75705,0 1.1458,-0.16368 1.1458,-0.51152 -0.0409,-0.0818 -0.18414,-0.18414 -0.47059,-0.26598 v 0 z m 0.34782,1.41179 c -0.0818,-0.0614 -0.16368,-0.10231 -0.22506,-0.10231 -0.0614,0 -0.12276,0.0205 -0.16369,0.0614 l -0.14323,-0.0205 -0.30691,0.10231 c -0.16369,-0.0204 -0.63428,0.0205 -1.4118,0.12277 -0.0205,0.1023 -0.0614,0.2046 -0.0614,0.3069 0.0614,0.0818 0.10229,0.16369 0.12276,0.24554 0.12276,0 0.26598,0 0.38876,0.0205 l 0.40921,-0.12277 0.30691,0.0614 c 0.10231,0 0.20461,-0.0205 0.30692,-0.0409 0.10229,-0.0205 0.2046,-0.0409 0.30691,-0.0409 0.40922,0 0.59336,-0.14322 0.59336,-0.38875 v 0 c 0.0204,-0.0818 -0.0205,-0.14323 -0.12277,-0.20461 z m -4.95151,-2.63945 c -0.0614,0 -0.14322,0.0205 -0.20461,0.0205 -0.0818,0.0204 -0.16369,0.0204 -0.24553,0.0204 -0.12277,0 -0.24553,-0.0204 -0.34784,-0.0614 l -0.16368,0.0409 -0.40922,-0.0409 c -0.22506,0 -0.32737,0.10229 -0.32737,0.26598 0,0.16369 0.26599,0.266 0.79797,0.32737 l 0.0818,-0.0204 0.51152,0.12276 0.45014,-0.0204 c 0.22506,0 0.32737,-0.1023 0.32737,-0.28645 v 0 c -0.12277,-0.24553 -0.28645,-0.3683 -0.47061,-0.3683 v 0 z m -0.18415,1.20719 -0.26599,0.10231 -0.0614,-0.0205 -0.10231,0.0409 -0.0818,-0.0204 c -0.0818,0.0409 -0.20461,0.0409 -0.40921,0 -0.24553,-0.0409 -0.38876,-0.0409 -0.45014,-0.0409 -0.22507,0 -0.32737,0.12276 -0.32737,0.36829 0,0.20461 0.12276,0.30691 0.34783,0.30691 l 0.26599,-0.1023 c 0.12276,0.0614 0.34783,0.0818 0.69567,0.0409 l 0.0818,0.0614 c 0.55244,-0.0205 0.81843,-0.16369 0.81843,-0.42967 -0.0409,-0.22508 -0.20461,-0.30692 -0.51152,-0.30692 v 0 z m -0.22507,1.32995 h -0.0818 l -0.34784,-0.0614 -0.45014,0.0818 -0.45013,0.0204 c -0.16369,0.0205 -0.24553,0.12277 -0.24553,0.30692 0,0.22506 0.20461,0.32737 0.5729,0.32737 0.55244,-0.0205 0.90028,0 1.0435,0.0409 l 0.34784,-0.10231 h 0.1023 l 0.32737,-0.26598 v 0 c -0.1023,-0.24553 -0.34783,-0.34784 -0.81843,-0.34784 v 0 z m 1.73917,-5.01289 h -0.1023 c 0.1023,-0.28645 0.18414,-0.65476 0.22506,-1.16627 0.0205,-0.38876 0.0614,-0.77752 0.0818,-1.16627 l 0.0614,0.0409 c 0.0818,0.90027 0.16369,1.57548 0.22506,2.02561 z"
   inkscape:connector-curvature="0"
   style="fill:#ffffff;stroke-width:0.20460816" />
<path
   id="Char_white"
   class="st1"
   d="m 464.80309,172.47083 1.18673,-1.82101 1.06396,-0.3683 1.39134,-0.94119 c 0,0 1.73917,-0.59337 1.82101,-0.63429 0.0818,-0.0409 1.69825,-0.24553 1.69825,-0.24553 l 2.087,0.24553 1.32995,0.24553 1.00258,0.51152 1.06396,0.63429 1.32995,1.06396 0.75706,0.87981 0.75705,1.06397 0.36829,1.18672 0.0614,1.32996 0.12276,1.5141 -0.24552,1.69825 -0.24553,0.94119 -0.45014,0.75705 -1.00258,0.69567 -0.69567,0.69567 -1.69824,1.32996 -1.06397,0.63427 0.24553,0.51153 0.51152,0.45013 c 0,0 0.71613,0.53198 0.75705,0.63429 0.0409,0.10231 1.18673,2.27115 1.18673,2.27115 v 3.3965 l -2.82359,2.70083 -2.20977,1.57548 -3.70341,-0.0614 c 0,0 -2.59852,-1.10488 -2.90544,-1.51409 -0.28645,-0.38876 -1.88239,-4.84922 -1.88239,-4.84922 l 0.45014,-1.45272 0.51152,-0.75704 0.75705,-0.63429 0.5729,-0.69568 0.45015,-0.45013 0.75704,-0.45014 0.45014,-0.45013 -0.0614,-0.3683 -0.75706,-0.63428 -0.94119,-0.3683 -1.32995,-1.32995 -0.51153,-0.87982 -1.06395,-1.12534 -0.3683,-0.9412 -0.18415,-1.00258 0.18415,-1.18673 0.45014,-2.14838 z"
   inkscape:connector-curvature="0"
   style="fill:#ffffff;stroke-width:0.20460816" />
<path
   id="Char"
   d="m 480.45562,188.16428 c 0,0.63428 0.38874,1.63686 0.38874,2.25068 0,1.96424 0.36831,3.37604 0.36831,5.2789 -0.36831,0.22506 -1.69826,0.20461 -2.33254,0.18414 -0.36829,0.24553 -1.5141,-0.0409 -1.88239,0 -1.08443,0.10231 -2.27115,0.12277 -3.72388,0.12277 -1.22764,0 -2.61898,0.0614 -3.66248,0.12276 h -2.57807 c -0.81843,0.20461 -2.10746,-0.1023 -3.02819,0.12277 -0.63429,0.14323 -0.90028,0.14323 -1.63686,0.0614 -0.20461,-0.30691 -0.266,-0.55244 -0.24554,-1.12534 0.16369,-0.22508 0.0818,-0.5729 0.18415,-0.87982 0.36829,-1.02304 -0.0614,-1.94377 0.12276,-3.39649 0.10231,-0.81844 -0.40921,-1.71871 0.0614,-2.57806 0.32737,-0.59337 1.22764,-1.00258 1.82101,-1.3095 0.16369,-0.0818 0.30691,-0.0205 0.45014,-0.12276 0,-0.0409 0,-0.0818 0,-0.12277 0.22507,-0.18415 0.51152,-0.20461 0.75705,-0.36829 0.16369,-0.12277 0.34783,-0.49106 0.51152,-0.63429 0.1023,-0.0818 0.26599,-0.0409 0.3683,-0.12276 0.32737,-0.24553 0.5729,-0.71614 0.87981,-1.00259 0.22507,-0.22506 0.71612,-0.34782 0.87981,-0.63428 -0.0818,-0.0818 -0.0818,-0.1023 -0.12277,-0.24553 -0.32737,-0.0614 -0.38874,-0.26599 -0.63427,-0.3683 l -0.57291,-0.12276 c -0.38875,-0.20461 -1.04351,-0.67521 -1.32996,-1.00258 -0.24553,-0.28645 -0.26598,-0.67521 -0.51151,-1.00258 -0.12276,-0.18414 -0.38876,-0.36829 -0.51152,-0.5729 0,-0.0614 0,-0.12277 0,-0.18414 -0.22508,-0.30692 -0.69567,-0.47061 -0.87982,-0.81844 -0.16369,-0.28645 -0.0818,-0.65475 -0.24553,-0.9412 -0.0205,-0.0204 -0.16368,-0.0818 -0.18415,-0.12276 -0.28645,-0.77752 -0.0409,-1.73917 0.12276,-2.39392 0.1637,-0.63428 0.0614,-1.00258 0.24554,-1.63686 0.18414,-0.59337 0.55244,-1.37087 0.81843,-1.8824 0.0409,-0.18415 0.0818,-0.36829 0.12277,-0.5729 l 0.36829,-0.30691 c 0.12276,-0.20461 0.10231,-0.45014 0.24553,-0.63429 0.16368,-0.18414 0.77751,-0.77751 1.00258,-0.87982 0.28645,-0.12276 0.51152,-0.0818 0.75705,-0.24553 0.77751,-0.55243 1.53456,-1.12534 2.51668,-1.51409 0.28646,-0.10231 0.67521,-0.266 0.87981,-0.30692 0.42968,-0.12276 0.8389,0.0818 1.12535,-0.12276 2.72129,-0.0205 4.48091,0.61382 6.03594,1.71871 0.20461,0.14322 0.45014,0.1023 0.63429,0.24553 0.14322,0.12276 0.22506,0.38876 0.36829,0.51152 0.12277,0.0818 0.266,0.0409 0.36829,0.12277 0.51153,0.45013 1.39134,1.6164 1.63687,2.27114 l 0.12277,0.87982 c 0.0818,0.14322 0.26598,0.28645 0.3069,0.51152 v 0.63428 c 0.30692,1.24811 0.18416,2.61898 -0.14322,3.90801 -0.0818,0.36831 0.0818,0.77752 -0.0614,1.06397 -0.45014,0.85935 -1.32996,1.37088 -2.087,1.94378 -0.0818,0.0614 0,0.16368 -0.0614,0.24553 -0.1023,0.16368 -0.83889,0.90028 -1.00258,1.00258 -0.26598,0.16368 -0.53198,0.2046 -0.81843,0.36829 l -0.18415,0.24553 c -0.22506,0.12276 -0.67521,0.0409 -0.81843,0.24553 0.0614,0.12276 0.0205,0.0818 0,0.24554 0.51153,0.1023 0.59337,0.61382 0.9412,0.8798 0.67521,0.51153 1.67779,0.61384 2.39392,1.06397 0.40921,0.14322 1.55501,1.49364 1.45272,1.92332 z m -0.16369,-9.82119 c 0.0204,-0.4706 0.16369,-0.77752 0.24553,-1.12535 0.22506,-0.87981 -0.10231,-1.94378 -0.24553,-2.51668 -0.12277,-0.51153 0,-0.9412 -0.18415,-1.39133 -0.59337,-1.35042 -2.84405,-3.23282 -4.21493,-3.84664 -0.40922,-0.18414 -0.81843,-0.1023 -1.26857,-0.24553 -0.67521,-0.24553 -2.55761,-0.71613 -3.64202,-0.45013 -1.35042,0.34782 -2.61899,0.98211 -3.66249,1.69824 -0.0818,0.0614 -0.79797,0.5729 -0.81844,0.63429 -0.2046,0.32737 -0.0409,0.42967 -0.45013,0.5729 0,-0.12276 0,-0.24553 0,-0.36829 0.12276,-0.12277 0.18415,-0.12277 0,-0.24553 0,0.0204 0,0.0409 0,0.0614 h -0.0614 c 0,0.12277 0.0614,0.0205 0,0.12277 -1.3095,1.47318 -2.18931,4.15354 -2.41437,6.73162 0.0818,0.0409 0.16368,0.0614 0.24552,0.0614 0.1023,-0.12276 0.14322,-0.14323 0.30691,-0.18415 0,0.0409 0,0.0818 0,0.12278 -0.20461,0.2046 -0.32737,0.5729 -0.38875,0.94119 0.34783,0.26598 0.49106,0.83889 0.81843,1.12534 0.20461,0.18415 0.59337,0.20461 0.75705,0.45014 0.32737,0.49106 0.34783,1.16627 0.75705,1.57548 0.3683,0.3683 0.90028,0.38876 1.39133,0.63429 0.77751,0.38876 1.49364,0.98212 2.4553,1.20719 0,-0.24553 -0.0204,-0.28645 0.12277,-0.36829 0.32737,0.36829 1.30949,0.94119 2.27115,0.63427 0.71612,-0.24553 1.02304,-0.92073 2.02562,-1.00257 0,0.0409 0,0.0818 0,0.12277 -0.20461,0.18414 -0.40921,0.32737 -0.51152,0.63427 h 0.36829 c 0.87982,-0.53198 2.33253,-0.63427 3.21235,-1.43225 0.36829,-0.34783 0.87982,-1.55502 1.26858,-1.63687 0.1023,0.10231 0.12276,0.10231 0.3069,0.12277 0.28645,-0.38875 0.87982,-0.61382 0.94121,-1.18672 0.28645,-0.45014 -0.16369,-1.04351 -0.18416,-1.51411 h 0.12277 c 0.16368,0.0409 0.20461,0.0409 0.42968,0.0614 z m -9.30967,-8.69585 c 0,0.0818 0,0.16369 0,0.24553 -0.57291,0.0409 -0.87982,0.24553 -1.5141,0.24553 0,-0.0409 0,-0.0818 0,-0.12276 0.12276,-0.10231 0.0818,-0.12277 0.24552,-0.18416 0.266,-0.22506 0.79798,-0.2046 1.26858,-0.18414 z m 3.41695,0.87982 c 0.53199,0.0205 1.24811,0.22506 1.39134,0.63428 h -0.12277 c -0.40921,-0.26599 -1.14581,-0.12277 -1.26857,-0.63428 z m -6.44516,2.37344 c 0.16369,0.0818 0.0409,-0.0204 0.12277,0.12278 h -0.0614 c -0.16369,0.38875 -0.71613,0.77751 -1.00258,1.06396 -0.67521,0.67521 -1.59595,2.20977 -2.57806,2.45529 v -0.24552 c 0.90027,-0.85937 1.53456,-2.00517 2.45529,-2.8236 0.30692,-0.26599 0.73659,-0.32737 1.06396,-0.57291 z m -3.51925,4.52185 c 0.0204,-0.12276 0.0204,-0.12276 0.0614,-0.18415 0.24554,-0.55245 0.96166,-0.96166 1.39134,-1.39133 1.08443,-1.08442 2.55761,-3.33512 4.84921,-2.88498 0,0.0818 0,0.16369 0,0.24553 h -0.12276 c -0.20461,0.12276 -0.63428,0.0409 -0.87981,0.12276 -0.49107,0.16369 -0.98212,0.47061 -1.39134,0.75706 -0.32737,0.22507 -0.55244,0.59336 -0.81843,0.87981 -0.40922,0.38875 -0.85936,0.73659 -1.26857,1.12535 -0.0614,0.0614 -0.0614,0.20461 -0.12277,0.24553 -0.18414,0.16368 -0.45013,0.2046 -0.63429,0.36829 -0.34782,0.34784 -0.45013,0.67521 -1.06395,0.71613 z m 8.42985,-4.50138 c 1.96424,-0.0205 3.00774,0.98211 3.9694,1.96424 0.45014,0.45014 0.96166,0.63429 0.94119,1.57548 h -0.12276 c -0.90027,-0.96166 -1.84148,-2.14838 -3.15096,-2.70083 -0.51153,-0.22507 -1.26858,-0.24552 -1.75964,-0.38875 -0.0409,-0.1023 -0.0614,-0.20461 -0.0614,-0.30691 0.0818,-0.0614 0.14322,-0.10231 0.18414,-0.14323 z m 5.29935,1.8824 c 0.34784,0.12276 0.65475,0.65474 0.75706,1.00258 h -0.12277 c -0.0818,-0.0614 -0.16369,-0.10231 -0.24553,-0.12277 -0.14323,-0.28646 -0.26599,-0.55244 -0.38876,-0.87981 z m -6.4247,0.75705 h 2.39392 c 1.78009,0.45014 2.37346,1.24811 3.45788,2.33252 0.32737,0.32738 1.08443,0.63429 1.24811,1.06397 0.1023,0.14322 0.1023,0.61382 0,0.75705 -0.24553,0.71612 -0.87981,0.55244 -1.57548,0.81843 -0.28646,0.10231 -0.59337,0.32737 -0.87982,0.51153 -0.16368,0.10229 -0.34783,0.32737 -0.51152,0.42967 -0.75705,0.49106 -1.9847,0.98212 -2.90543,1.24811 -1.04351,0.32738 -3.96941,-0.26599 -4.54231,-0.75705 v -0.18415 l -0.24553,0.0614 c -0.26599,-0.0818 -0.75705,-0.32738 -1.00258,-0.51152 -0.94119,-0.61383 -1.73916,-1.37088 -2.51667,-2.1484 0,-0.12276 0,-0.24553 0,-0.36829 0.26598,-0.24553 0.47059,-0.53198 0.81843,-0.69566 0.28645,-0.14322 0.61382,-0.0818 0.87981,-0.24553 0.0818,-0.0614 0,-0.18415 0.0614,-0.24553 0.10231,-0.10231 0.24553,-0.0409 0.36829,-0.12277 0.61384,-0.36829 1.3095,-0.98212 2.02563,-1.24811 0.34783,-0.12276 0.65475,-0.0818 1.00258,-0.18415 0.34783,-0.1023 0.77751,-0.28645 1.12535,-0.36829 0.34783,-0.1023 0.59336,0 0.79796,-0.14322 z m 0.63429,0.87981 v 0.18415 c 0.30692,0.18415 0.79797,0.55244 0.87982,0.94119 0.14322,0.63429 -1.4118,2.02563 -2.27115,1.45272 -0.38876,-0.12277 -0.51152,-0.45014 -0.75705,-0.69567 -0.0205,-0.63428 0.1023,-0.81843 0.38875,-1.12534 0.28646,0.0818 0.32738,0.22507 0.69567,0.24553 0.0409,-0.1023 0.12277,-0.18414 0.18414,-0.24553 -0.0409,-0.20461 -0.0818,-0.42967 -0.12276,-0.63429 -0.1023,-0.0409 -0.0614,-0.0205 -0.12277,-0.0614 l -1.00258,0.12277 c -0.53198,0.77751 -0.79797,0.71613 -0.69566,2.06654 0.32737,0.22507 0.59337,0.65475 0.94119,0.81844 1.06397,0.51151 2.96682,-0.20461 3.33512,-0.94121 0.24553,-0.47059 0.18415,-1.16626 0.12276,-1.75962 -0.38875,-0.28646 -0.32737,-0.51152 -1.06396,-0.51152 -0.14323,0.10229 -0.30691,0.12276 -0.51152,0.14322 z m 2.37346,0.24552 c 0.0409,1.90287 -0.34784,2.76222 -1.57549,3.33512 -2.25069,1.06397 -4.84921,-0.42967 -4.33769,-2.72128 h -0.24553 c -0.22507,0.16368 -0.51152,0.16368 -0.75705,0.3069 l -0.18414,0.24553 -1.12535,0.57291 c 0.0409,0.22506 -0.0409,0.73659 0.0614,1.00258 0.0409,0.12277 0.24553,0.26599 0.30691,0.3683 0.51153,0.79797 0.40922,0.63427 1.24811,1.06395 0.65475,0.34784 1.37088,0.75706 2.20977,0.94121 h 1.12535 c 1.78009,0 2.74175,-0.32738 3.78525,-1.00258 0.77751,-0.51153 1.63686,-0.94121 1.63686,-2.18932 0,-0.2046 0.0204,-0.45013 -0.0614,-0.5729 -0.22507,-0.61382 -1.24811,-1.28903 -2.087,-1.35042 z m 2.51668,2.02563 c 0,0.42967 -0.0614,0.69567 -0.12277,1.00258 h 0.24554 c 0.16368,-0.12276 0.53197,-0.14323 0.75704,-0.18415 0.0614,-0.1023 0.10231,-0.20461 0.12276,-0.30691 -0.53198,-0.0614 -0.51151,-0.42967 -1.00257,-0.51152 z m -11.21253,0.85935 v -0.63428 c -0.1023,-0.0409 -0.0614,-0.0205 -0.12277,-0.0614 -0.1023,0.0409 -0.0614,0.0204 -0.12276,0.0614 -0.26599,0.0614 -0.30692,0.12276 -0.38876,0.3683 0.36829,0.0614 0.32737,0.20461 0.63429,0.26598 z m 8.81861,4.66507 c -0.69567,0 -1.02304,0.12276 -1.69825,0.12276 -0.14323,0.22508 -0.28645,0.22508 -0.30691,0.57291 0.30691,0.26599 0.53198,1.18673 0.81844,1.32995 0.0614,0.0409 0.0614,0.0409 0.18414,0.0614 0.28645,-0.55244 0.96166,-1.41179 1.00258,-2.087 z m -4.27631,0.36829 c -0.77751,0 -1.08442,-0.24553 -1.82101,-0.24553 -0.0818,0.22508 -0.0614,0.61383 -0.0614,0.9412 0.30692,0.28646 0.32738,0.90028 0.81843,1.00258 0.10231,-0.0409 0,0 0.18416,0 0.0409,-0.59336 0.49105,-1.1458 0.87981,-1.39133 0,-0.0818 0,-0.20461 0,-0.30692 z m 4.6446,-0.1023 c -0.0204,0.49106 -0.28645,0.6752 -0.45013,1.00259 -0.16369,0.32737 -0.1023,0.63427 -0.24553,0.94119 -0.16369,0.32737 -0.4706,0.65474 -0.63429,0.94119 -0.14322,0.266 -0.12276,0.45014 -0.24553,0.75706 -0.1023,0.26599 -0.38876,0.51152 -0.51152,0.75705 -0.38875,0.85935 -0.51152,1.71871 -0.81843,2.63944 -0.24553,0.69567 -0.59337,1.90286 -0.45014,2.76221 0.12277,0.0614 0.12277,0.0818 0.30692,0.12277 0.63428,-1.32996 1.51409,-2.43484 2.33252,-3.58065 0.38876,-0.55244 1.0435,-0.98211 1.14581,-1.82101 -0.69566,-0.53198 -0.65474,-1.69824 0.12277,-2.06654 0.34784,-0.16368 0.71613,0.0205 0.94119,-0.24554 0.0409,-0.0409 0.0818,-0.14322 0.12277,-0.18414 -0.14322,-0.94119 -0.73659,-1.82101 -1.61641,-2.02562 z m -7.42727,0.49106 c -0.63429,0.65475 -1.43226,1.20719 -1.5141,2.39391 0.40921,0.3683 0.96166,0.51153 1.45271,0.81844 -0.18414,0.53198 -0.85935,1.10488 -0.87981,1.82101 0.18415,0.14322 0.22507,0.38875 0.3683,0.5729 0.18414,0.18416 0.45014,0.30692 0.63428,0.51153 0.26599,0.28645 0.36829,0.71613 0.63429,1.00258 0.28645,0.32737 0.71613,0.55243 1.00258,0.87981 0.18415,0.20461 0.22507,0.4706 0.36829,0.69567 0.22507,0.32737 0.53198,0.61382 0.75705,0.94119 h 0.12277 c 0.0409,-0.0614 0.0818,-0.1023 0.12276,-0.12276 -0.0818,-0.26599 0.0205,-0.73659 -0.0614,-1.06396 -0.14322,-0.53199 -0.49105,-1.20719 -0.69566,-1.75963 -0.0614,-0.3683 -0.12276,-0.75705 -0.18414,-1.12535 -0.266,-0.94119 -0.55245,-2.12792 -0.94121,-2.96682 l -0.12276,-0.69566 c -0.18414,-0.40922 -0.5729,-0.87982 -0.81843,-1.26857 -0.10231,-0.20462 -0.0409,-0.51152 -0.24553,-0.63429 z m 2.76221,4.39908 c 0,-0.61383 0.51152,-1.16627 0.38875,-1.51411 -0.26599,-0.38875 -0.6752,-0.0204 -0.69566,-0.75704 0.22506,-0.22507 0.32737,-0.53199 0.30691,-1.00258 -0.12277,0.0204 -0.12277,0.0204 -0.18415,0.0614 -0.87981,1.08443 -0.28645,1.90287 0,3.21235 z m 2.33253,-2.76222 c -0.0205,0.92074 -0.49106,0.79797 -0.69567,1.24811 0,0.32738 0,0.67521 0,1.00258 h 0.12277 c 0,-0.0204 0,-0.0409 0,-0.0614 0.49106,-0.18415 0.83889,-1.24811 0.81843,-2.00516 -0.1023,-0.0818 -0.1023,-0.12276 -0.24553,-0.18415 z"
   inkscape:connector-curvature="0"
   style="stroke-width:0.20460816" />
</svg>